#!OML:ASF H:\Martial Arts Walks\Project 1\Capture day 1\Session 1\male.ASF
:FULLY-SPECIFIED
:DEGREES
1682
root -4.34662 12.5389 -0.0770043 -173.294 80.3355 -179.01
lowerback 17.2661 6.5269 0.416069
upperback -2.54002 8.59725 -1.87733
thorax -12.1143 3.92096 -4.63664
lowerneck -0.347457 12.2489 4.64542
upperneck 7.93 16.6996 -3.44149
head 3.38156 8.36664 -1.28947
rclavicle 8.59992e-014 -1.59028e-014
rhumerus -37.2338 49.752 -91.5991
rradius 108.48
rwrist 10.1233
rhand -11.3725 -24.2907
rfingers 7.12502
rthumb 14.6616 -53.7523
lclavicle 8.59992e-014 -1.59028e-014
lhumerus -15.5041 5.84972 61.7
lradius 108.474
lwrist 40.3011
lhand -26.5566 12.9899
lfingers 7.12502
lthumb 0.00819543 42.9696
rfemur -40.2302 -34.7741 -5.49021
rtibia 89.1543
rfoot -32.0208 -9.04328
rtoes -34.1831
lfemur -55.9691 28.248 2.69113
ltibia 82.0749
lfoot -28.757 -9.56712
ltoes -21.6199
1683
root -4.3445 12.5033 -0.111929 -172.663 80.3937 -178.473
lowerback 17.1284 6.56902 0.359541
upperback -2.62533 8.64561 -1.85153
thorax -12.1416 3.94754 -4.57995
lowerneck -0.420975 12.301 4.61708
upperneck 8.13439 16.7734 -3.33725
head 3.45578 8.40508 -1.23631
rclavicle -1.92001e-013 1.98785e-016
rhumerus -37.2331 50.0038 -91.687
rradius 108.612
rwrist 10.4699
rhand -11.4047 -23.9398
rfingers 7.12502
rthumb 14.6306 -53.4037
lclavicle -1.92001e-013 1.98785e-016
lhumerus -15.5239 6.1308 61.7136
lradius 108.482
lwrist 39.9441
lhand -26.5707 13.0343
lfingers 7.12502
lthumb -0.00543071 43.014
rfemur -40.4524 -35.0246 -5.5603
rtibia 89.3696
rfoot -32.0673 -8.85803
rtoes -34.2497
lfemur -56.4476 28.6175 2.59173
ltibia 82.7111
lfoot -29.0125 -9.69199
ltoes -21.5291
1684
root -4.34269 12.4667 -0.146376 -172.181 80.4038 -178.089
lowerback 16.9767 6.58923 0.359037
upperback -2.69479 8.67412 -1.85245
thorax -12.1308 3.96202 -4.57365
lowerneck -0.430091 12.3195 4.60273
upperneck 8.23735 16.8036 -3.29855
head 3.48927 8.42135 -1.21606
rclavicle 6.4605e-016 1.22253e-014
rhumerus -37.2111 50.2436 -91.7234
rradius 108.79
rwrist 10.7047
rhand -11.6405 -23.7534
rfingers 7.12502
rthumb 14.4034 -53.2337
lclavicle 6.4605e-016 1.22253e-014
lhumerus -15.5429 6.435 61.7917
lradius 108.504
lwrist 39.5136
lhand -26.5737 13.0032
lfingers 7.12502
lthumb -0.00830598 42.9829
rfemur -40.6289 -35.3275 -5.69631
rtibia 89.5809
rfoot -32.1685 -8.5912
rtoes -34.4033
lfemur -56.9411 28.8673 2.46844
ltibia 83.3317
lfoot -29.225 -9.81915
ltoes -21.4221
1685
root -4.34096 12.4276 -0.179328 -171.536 80.4285 -177.514
lowerback 16.8712 6.64221 0.390419
upperback -2.76742 8.75261 -1.85664
thorax -12.1419 3.99631 -4.60767
lowerneck -0.490607 12.3115 4.64737
upperneck 8.36884 16.7947 -3.25133
head 3.5456 8.41929 -1.19923
rclavicle 1.08139e-013 -7.45443e-015
rhumerus -37.2308 50.3741 -91.7467
rradius 108.941
rwrist 11.0128
rhand -11.5951 -23.1217
rfingers 7.12502
rthumb 14.4472 -52.5988
lclavicle 1.08139e-013 -7.45443e-015
lhumerus -15.5032 6.59848 61.8651
lradius 108.535
lwrist 39.2545
lhand -26.6834 13.0574
lfingers 7.12502
lthumb -0.114328 43.0371
rfemur -40.7844 -35.5766 -5.80105
rtibia 89.7959
rfoot -32.2319 -8.51062
rtoes -34.8372
lfemur -57.424 29.1978 2.37746
ltibia 83.9711
lfoot -29.4796 -9.91442
ltoes -21.4631
